<svg width="40" height="40" viewBox="0 0 40 40" xmlns="http://www.w3.org/2000/svg">
  <defs>
    <radialGradient id="explosionGrad" cx="50%" cy="50%" r="50%">
      <stop offset="0%" style="stop-color:#FFFF00;stop-opacity:1" />
      <stop offset="50%" style="stop-color:#FF6B35;stop-opacity:0.8" />
      <stop offset="100%" style="stop-color:#FF0000;stop-opacity:0.6" />
    </radialGradient>
    <filter id="explosionGlow">
      <feGaussianBlur stdDeviation="2" result="coloredBlur"/>
      <feMerge> 
        <feMergeNode in="coloredBlur"/>
        <feMergeNode in="SourceGraphic"/>
      </feMerge>
    </filter>
  </defs>
  <!-- 爆炸中心 -->
  <circle cx="20" cy="20" r="8" fill="url(#explosionGrad)" filter="url(#explosionGlow)"/>
  <!-- 爆炸射线 -->
  <line x1="20" y1="20" x2="20" y2="4" stroke="#FFFF00" stroke-width="3"/>
  <line x1="20" y1="20" x2="36" y2="20" stroke="#FFFF00" stroke-width="3"/>
  <line x1="20" y1="20" x2="20" y2="36" stroke="#FFFF00" stroke-width="3"/>
  <line x1="20" y1="20" x2="4" y2="20" stroke="#FFFF00" stroke-width="3"/>
  <line x1="20" y1="20" x2="32" y2="8" stroke="#FF6B35" stroke-width="2"/>
  <line x1="20" y1="20" x2="32" y2="32" stroke="#FF6B35" stroke-width="2"/>
  <line x1="20" y1="20" x2="8" y2="32" stroke="#FF6B35" stroke-width="2"/>
  <line x1="20" y1="20" x2="8" y2="8" stroke="#FF6B35" stroke-width="2"/>
  <!-- 爆炸粒子 -->
  <circle cx="20" cy="6" r="2" fill="#FFFF00"/>
  <circle cx="34" cy="20" r="2" fill="#FF6B35"/>
  <circle cx="20" cy="34" r="2" fill="#FFFF00"/>
  <circle cx="6" cy="20" r="2" fill="#FF6B35"/>
  <circle cx="30" cy="10" r="1.5" fill="#FF0000"/>
  <circle cx="30" cy="30" r="1.5" fill="#FF0000"/>
  <circle cx="10" cy="30" r="1.5" fill="#FF0000"/>
  <circle cx="10" cy="10" r="1.5" fill="#FF0000"/>
</svg> 